<?xml version="1.0" encoding="UTF-8" standalone="no"?>
<svg
   viewBox="0 0 19.58226 19.121357"
   version="1.1"
   id="svg1"
   xmlns="http://www.w3.org/2000/svg"
   xmlns:svg="http://www.w3.org/2000/svg">  
  <path
     id="path1"
     fill="#cccccc"
     d="M 0.75034185,9.0650109e-8 A 0.750075,0.750075 0 0 0 6.4954318e-8,0.75034192 V 15.385107 A 0.750075,0.750075 0 0 0 0.75034185,16.134932 H 4.3966309 c 0.073041,0.01522 3.5432636,0.737735 7.0956911,1.476396 1.794801,0.373196 3.591158,0.747361 4.943367,1.027327 0.676105,0.139983 1.242271,0.256164 1.640727,0.337964 0.199229,0.0409 0.356741,0.07342 0.466638,0.0956 0.05495,0.01109 0.09731,0.01961 0.129191,0.02584 0.01594,0.0031 0.02978,0.0054 0.04289,0.0078 0.0066,0.0012 0.01254,0.0019 0.02325,0.0036 0.0054,8.77e-4 0.01145,0.0024 0.02377,0.0041 0.01232,0.0017 0.101045,0.0078 0.101286,0.0078 2.4e-4,0 0.525457,-0.214883 0.525549,-0.214974 9.3e-5,-9.1e-5 0.193324,-0.751711 0.19327,-0.751892 -5.4e-5,-1.81e-4 -0.115038,-0.230207 -0.115238,-0.230477 -1.99e-4,-2.7e-4 -0.04732,-0.05854 -0.06253,-0.07441 -0.06086,-0.06347 -0.07404,-0.06777 -0.08992,-0.0801 -0.03177,-0.02465 -0.04893,-0.03595 -0.07028,-0.05064 -0.0427,-0.02937 -0.09287,-0.06293 -0.15813,-0.10542 -0.130537,-0.08498 -0.314939,-0.200849 -0.536918,-0.341581 -0.443957,-0.281463 -1.038119,-0.655837 -1.635042,-1.029395 -0.08573,-0.05365 -0.08621,-0.05411 -0.171566,-0.107487 h 2.013314 a 0.750075,0.750075 0 0 0 0.750342,-0.749825 V 0.75034192 A 0.750075,0.750075 0 0 0 18.755961,9.0650109e-8 Z M 1.5001669,1.5001669 H 18.006136 V 14.634765 h -3.882967 a 0.750075,0.750075 0 0 0 -0.396359,1.386996 c 0,0 0.767731,0.480052 1.253671,0.782898 C 13.942699,16.58931 12.954815,16.382957 11.79928,16.142684 8.2100951,15.39638 4.6271078,14.650785 4.6271078,14.650785 A 0.750075,0.750075 0 0 0 4.4746624,14.634765 H 1.5001669 Z m 1.984375,1.4355713 a 0.75,0.75 0 0 0 -0.749825,0.749825 0.75,0.75 0 0 0 0.749825,0.7503418 H 13.564546 a 0.75,0.75 0 0 0 0.750342,-0.7503418 0.75,0.75 0 0 0 -0.750342,-0.749825 z m 0.047026,2.9372884 a 0.75,0.75 0 0 0 -0.7503422,0.7503418 0.75,0.75 0 0 0 0.7503418,0.749825 h 7.5235715 a 0.75,0.75 0 0 0 0.749825,-0.749825 0.75,0.75 0 0 0 -0.749825,-0.7503418 z m 0.060461,2.9378052 a 0.75,0.75 0 0 0 -0.749825,0.749825 0.75,0.75 0 0 0 0.749825,0.7503412 h 8.4940551 a 0.75,0.75 0 0 0 0.749825,-0.7503412 0.75,0.75 0 0 0 -0.749825,-0.749825 z m 0.091984,2.9372882 a 0.75,0.75 0 0 0 -0.7503418,0.750342 0.75,0.75 0 0 0 0.7503418,0.749825 H 7.6543132 A 0.75,0.75 0 0 0 8.404655,12.498462 0.75,0.75 0 0 0 7.6543132,11.74812 Z" />
</svg>
