<?xml version="1.0" encoding="UTF-8" standalone="no"?>
<!-- Created with Inkscape (http://www.inkscape.org/) -->

<svg
   width="20mm"
   height="20mm"
   viewBox="0 0 20 20"
   version="1.1"
   id="svg1"
   sodipodi:docname="icons.svg"
   inkscape:version="1.4 (86a8ad7, 2024-10-11)"
   inkscape:export-filename="warn.svg"
   inkscape:export-xdpi="96"
   inkscape:export-ydpi="96"
   xmlns:inkscape="http://www.inkscape.org/namespaces/inkscape"
   xmlns:sodipodi="http://sodipodi.sourceforge.net/DTD/sodipodi-0.dtd"
   xmlns="http://www.w3.org/2000/svg"
   xmlns:svg="http://www.w3.org/2000/svg">
  <sodipodi:namedview
     id="namedview1"
     pagecolor="#ffffff"
     bordercolor="#666666"
     borderopacity="1.0"
     inkscape:showpageshadow="2"
     inkscape:pageopacity="0.0"
     inkscape:pagecheckerboard="0"
     inkscape:deskcolor="#d1d1d1"
     inkscape:document-units="mm"
     inkscape:zoom="17.193449"
     inkscape:cx="38.764765"
     inkscape:cy="41.992739"
     inkscape:window-width="3840"
     inkscape:window-height="2080"
     inkscape:window-x="2869"
     inkscape:window-y="-11"
     inkscape:window-maximized="1"
     inkscape:current-layer="svg1" />
  <defs
     id="defs1" />
  <path
     id="text1"
     style="font-size:68.9655px;line-height:1.25;font-family:'AR CENA';-inkscape-font-specification:'AR CENA, Normal';text-align:justify;letter-spacing:0px;word-spacing:0px;display:inline;stroke-width:0.359195"
     inkscape:label="quotes"
     d="M 5.3531616 2.2897827 C 3.973849 2.2897827 2.7555586 2.7034646 1.6980876 3.5310506 C 0.6865944 4.3126596 0.18086751 5.3701338 0.18086751 6.7034668 C 0.18086751 7.5770298 0.52577611 8.3128662 1.2154297 8.9105672 C 1.9510617 9.4622912 2.7329184 9.7379069 3.5605062 9.7379069 C 3.9743004 9.7379069 4.4567546 9.6463799 5.0084798 9.4624715 C 4.8245716 10.657886 4.3876225 11.692078 3.6979655 12.565641 C 3.0542857 13.439204 2.36499 14.243815 1.6293579 14.979447 C 1.6293579 15.715079 2.0657924 16.082739 2.9393555 16.082739 C 4.6405092 16.082739 6.2037047 14.910468 7.6289917 12.565641 C 8.8703707 10.542652 9.4914103 8.6117932 9.4914103 6.7727132 C 9.4914103 5.4393802 9.1237505 4.3586366 8.3881185 3.5310506 C 7.6524865 2.7034646 6.6405176 2.2897827 5.3531616 2.2897827 z M 15.607833 3.8597127 C 14.228523 3.8597127 13.01026 4.2733946 11.952759 5.1009806 C 10.941237 5.8825896 10.435539 6.9400638 10.435539 8.2733968 C 10.435539 9.1469598 10.780426 9.8827834 11.470101 10.480497 C 12.205753 11.032221 12.987051 11.308354 13.814661 11.308354 C 14.228456 11.308354 14.711427 11.216314 15.263151 11.032402 C 15.079243 12.227804 14.642292 13.262008 13.952637 14.135571 C 13.308942 15.009134 12.619165 15.813745 11.883512 16.549377 C 11.883512 17.285009 12.32044 17.653186 13.194027 17.653186 C 14.895196 17.653186 16.458376 16.480398 17.883663 14.135571 C 19.125042 12.112583 19.745565 10.181728 19.745565 8.3426432 C 19.745565 7.0093102 19.377905 5.9285666 18.642273 5.1009806 C 17.906641 4.2733946 16.895189 3.8597127 15.607833 3.8597127 z "
     inkscape:export-filename="quotes.svg"
     inkscape:export-xdpi="96"
     inkscape:export-ydpi="96" />
  <path
     id="path1"
     style="display:none;stroke-linecap:round;stroke-linejoin:round"
     d="M 0.95911458,0.43924967 A 0.750075,0.750075 0 0 0 0.20877279,1.1895915 V 15.824357 a 0.750075,0.750075 0 0 0 0.75034179,0.749825 H 4.6054036 c 0.073041,0.01522 3.5432636,0.737735 7.0956914,1.476396 1.794801,0.373196 3.591158,0.747361 4.943367,1.027327 0.676105,0.139983 1.242271,0.256164 1.640727,0.337964 0.199229,0.0409 0.356741,0.07342 0.466638,0.0956 0.05495,0.01109 0.09731,0.01961 0.129191,0.02584 0.01594,0.0031 0.02978,0.0054 0.04289,0.0078 0.0066,0.0012 0.01254,0.0019 0.02325,0.0036 0.0054,8.77e-4 0.01145,0.0024 0.02377,0.0041 0.01232,0.0017 0.101045,0.0078 0.101286,0.0078 2.4e-4,0 0.525457,-0.214883 0.525549,-0.214974 9.3e-5,-9.1e-5 0.193324,-0.751711 0.19327,-0.751892 -5.4e-5,-1.81e-4 -0.115038,-0.230207 -0.115238,-0.230477 -1.99e-4,-2.7e-4 -0.04732,-0.05854 -0.06253,-0.07441 -0.06086,-0.06347 -0.07404,-0.06777 -0.08992,-0.0801 -0.03177,-0.02465 -0.04893,-0.03595 -0.07028,-0.05064 -0.0427,-0.02937 -0.09287,-0.06293 -0.15813,-0.10542 -0.130537,-0.08498 -0.314939,-0.200849 -0.536918,-0.341581 -0.443957,-0.281463 -1.038119,-0.655837 -1.635042,-1.029395 -0.08573,-0.05365 -0.08621,-0.05411 -0.171566,-0.107487 h 2.013314 a 0.750075,0.750075 0 0 0 0.750342,-0.749825 V 1.1895915 A 0.750075,0.750075 0 0 0 18.964734,0.43924967 Z M 1.7089396,1.9394165 H 18.214909 V 15.074015 h -3.882967 a 0.750075,0.750075 0 0 0 -0.396359,1.386996 c 0,0 0.767731,0.480052 1.253671,0.782898 C 14.151472,17.02856 13.163588,16.822207 12.008053,16.581934 8.4188678,15.83563 4.8358805,15.090035 4.8358805,15.090035 A 0.750075,0.750075 0 0 0 4.6834351,15.074015 H 1.7089396 Z m 1.984375,1.4355713 a 0.75,0.75 0 0 0 -0.749825,0.749825 0.75,0.75 0 0 0 0.749825,0.7503418 H 13.773319 a 0.75,0.75 0 0 0 0.750342,-0.7503418 0.75,0.75 0 0 0 -0.750342,-0.749825 z m 0.047026,2.9372884 A 0.75,0.75 0 0 0 2.9899984,7.062618 0.75,0.75 0 0 0 3.7403402,7.812443 H 11.263912 A 0.75,0.75 0 0 0 12.013737,7.062618 0.75,0.75 0 0 0 11.263912,6.3122762 Z m 0.060461,2.9378052 a 0.75,0.75 0 0 0 -0.749825,0.749825 0.75,0.75 0 0 0 0.749825,0.7503416 h 8.4940554 a 0.75,0.75 0 0 0 0.749825,-0.7503416 0.75,0.75 0 0 0 -0.749825,-0.749825 z m 0.091984,2.9372886 a 0.75,0.75 0 0 0 -0.7503418,0.750342 0.75,0.75 0 0 0 0.7503418,0.749825 H 7.8630859 A 0.75,0.75 0 0 0 8.6134277,12.937712 0.75,0.75 0 0 0 7.8630859,12.18737 Z"
     inkscape:label="bubble"
     inkscape:export-filename="bubble.svg"
     inkscape:export-xdpi="96"
     inkscape:export-ydpi="96" />
  <path
     id="path8"
     style="display:none;stroke-linecap:round;stroke-linejoin:round;stroke-miterlimit:8;stroke-dashoffset:0.64252"
     d="m 1.8103688,-4.7675668 -5.0445633,2.089926 a 0.53576742,0.53576742 0 0 0 -0.2910999,0.2887795 L -5.61535,2.6583431 a 0.53576742,0.53576742 0 0 0 -3e-5,0.407932 l 2.0900915,5.046892 a 0.53576742,0.53576742 0 0 0 0.2907428,0.289088 l 5.0452169,2.0900799 a 0.53576742,0.53576742 0 0 0 0.4099196,6e-6 L 7.2654951,8.4022734 A 0.53576742,0.53576742 0 0 0 7.556595,8.113494 L 9.6463096,3.0664308 A 0.53576742,0.53576742 0 0 0 9.6465393,2.6580165 L 7.5565891,-2.3885344 A 0.53576742,0.53576742 0 0 0 7.265705,-2.6779635 L 2.2206294,-4.7677023 a 0.53576742,0.53576742 0 0 0 -0.4102606,1.355e-4 z M 2.0155377,-3.6935156 6.6523264,-1.7734598 8.5721229,2.8613391 6.6523839,7.4959989 2.0156216,9.4178073 -2.6190382,7.4980683 -4.5392,2.861423 -2.6191199,-1.7733781 Z m -1.80633044,2.1353728 a 0.89285642,0.89285642 0 0 0 -0.48323087,1.16662245 L 1.95272,4.9843144 A 0.89285642,0.89285642 0 0 0 3.1193425,5.4675452 0.89285642,0.89285642 0 0 0 3.6025733,4.3009227 L 1.3758297,-1.074912 A 0.89285642,0.89285642 0 0 0 0.20920726,-1.5581428 Z M 3.2568663,5.8005217 A 0.89285667,0.89285667 0 0 0 2.7736355,6.9671442 0.89285667,0.89285667 0 0 0 3.9402579,7.4503751 0.89285667,0.89285667 0 0 0 4.4234888,6.2837526 0.89285667,0.89285667 0 0 0 3.2568663,5.8005217 Z"
     transform="matrix(1.2934324,0.53575723,-0.53575723,1.2934324,8.9260473,5.2177945)"
     inkscape:label="warning"
     inkscape:export-filename="warn.svg"
     inkscape:export-xdpi="96"
     inkscape:export-ydpi="96" />
  <path
     id="path11"
     style="display:none;stroke-width:1.4;stroke-linecap:round;stroke-linejoin:round;stroke-miterlimit:8;stroke-dashoffset:0.64252"
     inkscape:label="info"
     d="m 9.9999064,19.839616 c 5.4249846,0 9.8397096,-4.414725 9.8397096,-9.8397096 0,-5.424984 -4.414725,-9.83970971 -9.8397096,-9.83970946 -5.424984,3e-8 -9.83970944,4.41472536 -9.83970946,9.83970946 -1e-8,5.4249846 4.41472536,9.8397096 9.83970946,9.8397096 z m 0,-1.500167 c -4.614324,0 -8.3400594,-3.725218 -8.3400594,-8.3395426 0,-4.614324 3.7257354,-8.3400595 8.3400594,-8.3400594 4.6143246,0 8.3395426,3.7257353 8.3395426,8.3400594 0,4.6143246 -3.725218,8.3395426 -8.3395426,8.3395426 z m -0.031523,-1.654163 c 0.6903976,3e-5 1.2500826,-0.559655 1.2500536,-1.250052 V 7.2889607 C 11.218466,6.5985635 10.658781,6.0388786 9.9683837,6.0389079 9.2779865,6.0388787 8.7183016,6.5985636 8.7183309,7.2889608 v 8.1462732 c -2.92e-5,0.690397 0.5596557,1.250082 1.2500525,1.250052 z M 9.9689005,5.5345459 C 10.659298,5.534575 11.218982,4.9748901 11.218953,4.284493 11.218982,3.5940958 10.659298,3.0344111 9.9689006,3.0344401 9.2785034,3.034411 8.7188187,3.5940959 8.7188477,4.284493 8.7188186,4.9748902 9.2785034,5.5345749 9.9689005,5.5345459 Z"
     inkscape:export-filename="info.svg"
     inkscape:export-xdpi="96"
     inkscape:export-ydpi="96" />
</svg>
