<?xml version="1.0" encoding="UTF-8" standalone="no"?>
<svg   
   viewBox="0 0 19.679419 19.679419"
   version="1.1"
   id="svg1"
   xmlns="http://www.w3.org/2000/svg"
   xmlns:svg="http://www.w3.org/2000/svg">
  <defs
     id="defs1" />
  <path
     id="path11"
     fill="#cccccc"
     d="m 9.8397095,19.679419 c 5.4249845,0 9.8397095,-4.414725 9.8397095,-9.8397095 C 19.679419,4.4147255 15.264694,-2.5462605e-7 9.8397095,0 4.4147255,2.5373952e-8 1.5373952e-8,4.4147254 0,9.8397095 -1.4626048e-8,15.264694 4.4147254,19.679419 9.8397095,19.679419 Z m 0,-1.500167 c -4.614324,0 -8.3400594,-3.725218 -8.3400594,-8.3395425 0,-4.614324 3.7257354,-8.3400595 8.3400594,-8.3400594 4.6143245,0 8.3395425,3.7257353 8.3395425,8.3400594 0,4.6143245 -3.725218,8.3395425 -8.3395425,8.3395425 z m -0.031523,-1.654163 c 0.6903975,3e-5 1.2500825,-0.559655 1.2500535,-1.250052 V 7.1287638 C 11.058269,6.4383666 10.498584,5.8786817 9.8081868,5.878711 9.1177896,5.8786818 8.5581047,6.4383667 8.558134,7.1287639 v 8.1462731 c -2.92e-5,0.690397 0.5596557,1.250082 1.2500525,1.250052 z M 9.8087036,5.374349 C 10.499101,5.3743781 11.058785,4.8146932 11.058756,4.1242961 11.058785,3.4338989 10.499101,2.8742142 9.8087037,2.8742432 9.1183065,2.8742141 8.5586218,3.433899 8.5586508,4.1242961 8.5586217,4.8146933 9.1183065,5.374378 9.8087036,5.374349 Z" />
</svg>
