<?xml version="1.0" encoding="UTF-8" standalone="no"?>
<svg
   viewBox="0 0 19.564697 15.363403"
   version="1.1"
   id="svg1"
   xmlns="http://www.w3.org/2000/svg"
   xmlns:svg="http://www.w3.org/2000/svg">
  <path
     fill="#cccccc"
     d="M 5.1722941,-1.1026728e-7 C 3.7929815,-1.1026728e-7 2.5746911,0.41368179 1.5172201,1.2412678 0.50572689,2.0228768 0,3.080351 0,4.413684 c 0,0.873563 0.3449086,1.6093994 1.0345622,2.2071004 0.735632,0.551724 1.5174887,0.8273397 2.3450765,0.8273397 0.4137942,0 0.8962484,-0.091527 1.4479736,-0.2754354 C 4.6437041,8.3681032 4.206755,9.4022952 3.517098,10.275858 c -0.6436798,0.873563 -1.3329755,1.678174 -2.0686076,2.413806 0,0.735632 0.4364345,1.103292 1.3099976,1.103292 1.7011537,0 3.2643492,-1.172271 4.6896362,-3.517098 C 8.6895032,8.2528692 9.3105428,6.3220104 9.3105428,4.4829304 9.3105428,3.1495974 8.942883,2.0688538 8.207251,1.2412678 7.471619,0.41368179 6.4596501,-1.1026728e-7 5.1722941,-1.1026728e-7 Z M 15.426965,1.5699299 c -1.37931,0 -2.597573,0.4136819 -3.655074,1.2412679 -1.011522,0.781609 -1.51722,1.8390832 -1.51722,3.1724162 0,0.873563 0.344887,1.6093866 1.034562,2.2071002 0.735652,0.551724 1.51695,0.827857 2.34456,0.827857 0.413795,0 0.896766,-0.09204 1.44849,-0.275952 -0.183908,1.195402 -0.620859,2.2296058 -1.310514,3.1031688 -0.643695,0.873563 -1.333472,1.678174 -2.069125,2.413806 0,0.735632 0.436928,1.103809 1.310515,1.103809 1.701169,0 3.264349,-1.172788 4.689636,-3.517615 1.241379,-2.0229878 1.861902,-3.9538428 1.861902,-5.7929276 0,-1.333333 -0.36766,-2.4140766 -1.103292,-3.2416626 -0.735632,-0.827586 -1.747084,-1.2412679 -3.03444,-1.2412679 z" />
</svg>
