<?xml version="1.0" encoding="UTF-8" standalone="no"?>
<svg
   viewBox="0 0 19.96002 19.957438"
   version="1.1"
   id="svg1"
   xmlns="http://www.w3.org/2000/svg"
   xmlns:svg="http://www.w3.org/2000/svg">
  <path
     id="path8"
     fill="#cccccc"
     d="M 13.802258,1.0770473e-7 6.1577638,5.1684954e-4 A 0.750075,0.750075 0 0 0 5.62653,0.21807473 L 0.21910813,5.62653 A 0.750075,0.750075 0 0 0 5.1681406e-4,6.1541464 L 0,13.801742 a 0.750075,0.750075 0 0 0 0.22117517,0.529683 l 5.40587163,5.406389 a 0.750075,0.750075 0 0 0 0.5302,0.219625 l 7.6450112,-5.18e-4 a 0.750075,0.750075 0 0 0 0.531234,-0.217557 l 5.406905,-5.408456 a 0.750075,0.750075 0 0 0 0.219108,-0.528133 l 5.17e-4,-7.6470782 A 0.750075,0.750075 0 0 0 19.738847,5.6254965 L 14.332975,0.21962493 A 0.750075,0.750075 0 0 0 13.802258,1.0770473e-7 Z M 13.4922,1.4991335 18.460889,6.4667889 v 7.0233441 l -4.966105,4.966105 -7.0269618,0.0016 -4.9661051,-4.966105 5.168e-4,-7.0259277 4.966622,-4.9661051 z M 10.011792,3.2933392 A 1.25,1.25 0 0 0 8.7617391,4.5433921 v 8.1462729 a 1.25,1.25 0 0 0 1.2500529,1.250053 1.25,1.25 0 0 0 1.250053,-1.250053 V 4.543392 A 1.25,1.25 0 0 0 10.011792,3.2933392 Z M 10.011275,14.44408 a 1.2500004,1.2500004 0 0 0 -1.2500526,1.250053 1.2500004,1.2500004 0 0 0 1.2500526,1.250053 1.2500004,1.2500004 0 0 0 1.250053,-1.250053 1.2500004,1.2500004 0 0 0 -1.250053,-1.250053 z" />
</svg>
